:SAMPLES-PER-SECOND 30
:FRAME-RANGE 1-1390
:FULLY-SPECIFIED
:DEGREES
1086
root  -25.5356 40.9977 -84.4162 -6.534 16.4107 2.88287
RightUpLeg  -1.04927 -2.53135 5.278
RightLeg  30.279 -2.48603 -1.80954
RightFoot  4.75982 -0.459816 3.4798
RightToes  -2.9104e-010 0 -3.6325e-017
Spine  17.8317 -0.469788 -7.54314
Spine1  -2.45038 -5.67771 8.75883
HEad  -0.721406 -22.5168 8.23563
LeftShoulder1  3.111 -5.30124 -29.3004
LeftArm  79.9118 -32.61 -86.2237
LeftForeArm  -2.83464 -16.2618 -12.8992
LeftHand  -0.0134166 3.67038 -0.379376
RightShoulder  12.8711 20.1902 47.4598
RightArm  37.9472 7.59971 23.3371
RightForeArm  22.4916 25.2644 4.221
RightHand  1.32353 7.58573 11.3974
LeftUpLeg  -95.2052 22.3044 -73.7349
LeftLeg  123.78 -8.12175 10.6295
LeftFoot  10.7853 1.90943 -10.0845
LeftToes  5.45371e-012 -1.3743e-010 1.09575e-010
1087
root  -25.0159 41.0573 -84.1227 -6.35297 13.8217 3.17651
RightUpLeg  -3.22741 -3.3268 4.93418
RightLeg  30.6737 -5.70981 -3.88841
RightFoot  3.45432 -0.223426 1.90203
RightToes  -2.9104e-010 0 -3.6325e-017
Spine  18.5519 -0.428421 -7.38798
Spine1  -2.70277 -5.71057 8.75683
HEad  -0.350332 -22.0906 8.40364
LeftShoulder1  3.11058 -5.23982 -29.5482
LeftArm  80.1769 -33.0499 -86.4361
LeftForeArm  -3.54334 -16.2793 -12.9214
LeftHand  -0.0159957 3.8727 -0.3116
RightShoulder  12.9667 20.2485 47.6992
RightArm  37.0392 8.02503 22.8045
RightForeArm  23.3185 25.1802 4.15901
RightHand  1.32549 8.05612 10.9938
LeftUpLeg  -95.3084 22.2504 -73.9531
LeftLeg  123.043 -6.99441 9.37541
LeftFoot  9.85725 1.91269 -10.5215
LeftToes  5.45371e-012 -1.3743e-010 1.09575e-010
1088
root  -24.5277 40.7763 -83.8427 -5.99506 11.013 2.85504
RightUpLeg  -4.78051 -4.31555 5.54658
RightLeg  25.9383 -5.74222 -3.26262
RightFoot  0.381356 -0.34997 3.43248
RightToes  -2.9104e-010 0 -3.6325e-017
Spine  19.3655 -0.536834 -6.65449
Spine1  -2.7778 -5.85378 8.60998
HEad  -0.702261 -21.4151 8.71039
LeftShoulder1  3.10869 -5.22037 -29.6068
LeftArm  77.4709 -33.5917 -86.5083
LeftForeArm  -0.924636 -15.4569 -13.5347
LeftHand  -0.0171509 3.92254 0.0725104
RightShoulder  13.0925 20.5931 47.4618
RightArm  37.2784 8.59453 22.7903
RightForeArm  23.4158 25.6025 4.24457
RightHand  1.19872 7.51578 10.354
LeftUpLeg  -95.6816 22.8308 -74.0447
LeftLeg  122.686 -5.7188 7.70878
LeftFoot  9.22979 2.01482 -11.3852
LeftToes  5.45371e-012 -1.3743e-010 1.09575e-010
1089
root  -24.11 40.0195 -83.5343 -5.35095 7.53033 2.36719
RightUpLeg  -6.78214 -7.02999 7.05725
RightLeg  21.0598 -7.56427 -3.37312
RightFoot  -3.6933 -0.305608 4.19293
RightToes  -2.9104e-010 0 -3.6325e-017
Spine  19.6288 -0.366372 -5.73515
Spine1  -2.53059 -5.75787 8.04233
HEad  -1.79187 -20.4601 8.88012
LeftShoulder1  3.12636 -5.3686 -29.2037
LeftArm  77.4411 -34.3053 -86.7046
LeftForeArm  -0.9536 -15.4023 -13.5844
LeftHand  -0.019287 3.91186 0.0589874
RightShoulder  13.5045 21.4611 47.2313
RightArm  36.9578 9.11908 23.1406
RightForeArm  23.9395 24.6674 4.01693
RightHand  1.22889 7.85332 10.3354
LeftUpLeg  -97.0884 23.6033 -74.277
LeftLeg  122.909 -5.44241 7.25683
LeftFoot  9.64258 2.32516 -12.8316
LeftToes  5.45371e-012 -1.3743e-010 1.09575e-010
1090
root  -23.6481 39.0235 -83.2379 -4.71722 4.66595 2.07373
RightUpLeg  -9.5254 -12.8213 8.8209
RightLeg  21.3132 -11.3889 -4.3281
RightFoot  -7.68393 0.219432 -8.47298
RightToes  -2.9104e-010 0 -3.6325e-017
Spine  19.8162 -0.351719 -5.19118
Spine1  -2.15736 -5.80876 7.97622
HEad  -2.53836 -19.8547 8.83417
LeftShoulder1  3.12423 -5.38683 -29.1055
LeftArm  74.3245 -34.9239 -86.7767
LeftForeArm  1.94328 -14.4904 -14.2047
LeftHand  -0.0220725 3.86652 0.0832343
RightShoulder  13.7333 21.8681 47.2534
RightArm  37.5647 9.18628 22.9293
RightForeArm  23.1203 24.6201 4.05011
RightHand  1.22212 7.61379 10.4776
LeftUpLeg  -97.1587 24.211 -73.2348
LeftLeg  122.904 -4.90959 6.50803
LeftFoot  11.1371 2.49784 -12.8709
LeftToes  5.45371e-012 -1.3743e-010 1.09575e-010
